<svg id="Layer_1" data-name="Layer 1" xmlns="http://www.w3.org/2000/svg" viewBox="0 0 1366 103.82"><defs><style>.cls-1{fill:#d32f95;}</style></defs><title>title</title><path class="cls-1" d="M20.12,9.45h21.7l-.3,1.4q-2.81,0-2.8,3.6,4.2,24.9,4.2,25.3,2.59-3,12.8-29.6l.3.5q1-1,12.7,30.6h.7l5.7-27.6a3.37,3.37,0,0,0-3.6-2.8V9.45h22.2v1.3q-5.2,4-7.9,15.6-2.31,12.39-3.5,21.2,0,7.39,13.5,8.5v25.4c0,2.4,0,3.8-.1,4.19H56.52V56.75c3.33-1.74,5-3.4,5-5q-4.6-17.8-5.2-18.9-3.41,11.59-5.5,18.9c0,1.6,1.66,3.26,5,5V85.64H16.62V55.45q14.19-.11,14.2-11.4-3.6-33.9-10-33.2c-.47-.14-.7-.14-.7,0Z"/><path class="cls-1" d="M123.42,26.55a11.24,11.24,0,0,1,8.25,3.1,15.68,15.68,0,0,1,4.25,7.8l2,8.9A17.82,17.82,0,0,0,139,50.1a9,9,0,0,0,1.75,2.75,7.12,7.12,0,0,0,2.65,1.7,11.12,11.12,0,0,0,3.9.59v30.5H121V55.35a5.89,5.89,0,0,0,2.6-1.6,4.05,4.05,0,0,0,1-2.8V34.05a4.44,4.44,0,0,0-4.4-4.4A4.32,4.32,0,0,0,117,31a4.21,4.21,0,0,0-1.3,3.1V51a4,4,0,0,0,1,2.8,5.77,5.77,0,0,0,2.6,1.6V85.64H96.52V55.14h2.1A5.82,5.82,0,0,0,103,53.35a6,6,0,0,0,1.75-4.3V12.35a4.32,4.32,0,0,0-1.25-3.1,4.07,4.07,0,0,0-3-1.3V6.65h15.3v22.6A12.32,12.32,0,0,1,123.42,26.55Z"/><path class="cls-1" d="M173.42,27.25q9,0,13.7,8.2a5.19,5.19,0,0,1,.5,2.1q0,7.1-12.4,8.8-3.41,1.89-3.41,3.6v.5q0,2.4,4.91,4.9a15.82,15.82,0,0,0,5.2.79H193c.33.07.5.24.5.5V84.75c0,.33-.27.5-.8.5q-4.5,0-18.8.3v-.3l-.5.3q-7.9,0-15.7-6.7a25.19,25.19,0,0,1-7-17.6v-1q0-7,8-24Q164.42,27.25,173.42,27.25Zm-5.7,9.8q0,3.5,2.09,10.3.51-3.51,7.5-9.3a4.18,4.18,0,0,0,1-3.8q-.88-4.91-5.39-4.9Q167.71,29.35,167.72,37.05Z"/><path class="cls-1" d="M225.51,27q7.71,0,8.1,8-.5,7.39-7.6,7.5c-3.66-.54-5.5-2.47-5.5-5.8,0-2.6,1.74-4.44,5.2-5.5l.3-1a1.56,1.56,0,0,0-1.6-1.2c-2.4,0-4,1.76-4.7,5.3V47.64q0,6.11,7.1,7.81a17.37,17.37,0,0,0,2.1.19H232v30h-34.3V56.45a23.16,23.16,0,0,0,6-1.31,8.89,8.89,0,0,0,4.5-8V32.65c-.2-1.74-1.53-3.4-4-5v-.5h15c.14,1.33.4,2,.8,2A7.68,7.68,0,0,1,225.51,27Z"/><path class="cls-1" d="M259.21,27.25q9,0,13.7,8.2a4.88,4.88,0,0,1,.5,2.1q0,7.1-12.4,8.8c-2.26,1.26-3.4,2.46-3.4,3.6v.5c0,1.6,1.64,3.23,4.9,4.9a15.91,15.91,0,0,0,5.2.79h11.1c.34.07.5.24.5.5V84.75c0,.33-.26.5-.8.5q-4.5,0-18.8.3v-.3l-.5.3q-7.89,0-15.7-6.7a25.24,25.24,0,0,1-7-17.6v-1q0-7,8-24Q250.21,27.25,259.21,27.25Zm-5.7,9.8q0,3.5,2.1,10.3.51-3.51,7.5-9.3a4.18,4.18,0,0,0,1-3.8q-.9-4.91-5.4-4.9Q253.52,29.35,253.51,37.05Z"/><path class="cls-1" d="M329.21,15.85A5.24,5.24,0,0,0,328,12.5,3.85,3.85,0,0,0,324.81,11V9.55h19.7V11a3.74,3.74,0,0,0-3.05,1.6,5.3,5.3,0,0,0-1.25,3.3l-.3,10.8h20.7l-.6-10.8a5.3,5.3,0,0,0-1.25-3.3,3.82,3.82,0,0,0-3.15-1.6V9.55h19.8V11a3.82,3.82,0,0,0-3.15,1.6,5.3,5.3,0,0,0-1.25,3.3v23.5a22.44,22.44,0,0,0,.8,6,14.46,14.46,0,0,0,2.45,5,12.27,12.27,0,0,0,4.15,3.46,13,13,0,0,0,6,1.29v30.5h-33.5V55.25a8.15,8.15,0,0,0,4.95-2.3,12.07,12.07,0,0,0,2.75-4.5,23.2,23.2,0,0,0,1.15-5.65Q360,39.74,360,37l1-1.1-20.8.3v3.2a38.14,38.14,0,0,0,.35,5,18.23,18.23,0,0,0,1.35,4.9,11.89,11.89,0,0,0,2.75,4,8.13,8.13,0,0,0,4.55,2V85.64h-33.4V55.14a13,13,0,0,0,5.95-1.29,12.17,12.17,0,0,0,4.2-3.46,14.46,14.46,0,0,0,2.45-5,22.44,22.44,0,0,0,.8-6Z"/><path class="cls-1" d="M417.31,35.15a6.55,6.55,0,0,0-1.55-4.65,4.91,4.91,0,0,0-4.35-1.35A5.59,5.59,0,0,0,409,29c-.37.13-.77.3-1.2.5l-1.4.65a1.18,1.18,0,0,0-.75,1.15,1.47,1.47,0,0,0,.75,1.35l1.7,1a6.17,6.17,0,0,1,1.7,1.65,5.42,5.42,0,0,1,.75,3.15,5.08,5.08,0,0,1-1.65,3.85,5.59,5.59,0,0,1-3.95,1.55,4.89,4.89,0,0,1-4.2-1.9,7.35,7.35,0,0,1-1.4-4.5,9.05,9.05,0,0,1,1.5-5.15,13.18,13.18,0,0,1,3.8-3.75,19.71,19.71,0,0,1,10.4-3.1,19.4,19.4,0,0,1,6.2,1,15.74,15.74,0,0,1,5.5,3.2,18.53,18.53,0,0,1,3.5,4,28.58,28.58,0,0,1,2.4,4.55,36.37,36.37,0,0,1,1.65,5q.64,2.55,1.45,5a23.41,23.41,0,0,0,1,2.71A8.9,8.9,0,0,0,438,53.1a5.7,5.7,0,0,0,2,1.5,7,7,0,0,0,2.9.54h1.9v30l-2.25.41a14.06,14.06,0,0,1-2.35.2,17.52,17.52,0,0,1-10.5-3.4,21,21,0,0,1-7-8.6,20.92,20.92,0,0,1-2.95,5,22.37,22.37,0,0,1-4.15,4,19,19,0,0,1-5.05,2.65,17.56,17.56,0,0,1-5.75,1,16.59,16.59,0,0,1-7.3-1.6,18.65,18.65,0,0,1-5.7-4.25,19,19,0,0,1-3.7-6.15,21.07,21.07,0,0,1-1.3-7.4,20.08,20.08,0,0,1,1.7-8.85,16.68,16.68,0,0,1,4.55-5.75,25.77,25.77,0,0,1,6.7-3.85c2.57-1,5.28-2.05,8.15-3.05a24.27,24.27,0,0,0,3.3-1.55,15.33,15.33,0,0,0,3.05-2.25,11.3,11.3,0,0,0,2.2-3A7.94,7.94,0,0,0,417.31,35.15Zm-.6,7.5a25.58,25.58,0,0,1-3.65,3.7,39.14,39.14,0,0,1-4.25,3,7.67,7.67,0,0,0-1.8,1.54,3.42,3.42,0,0,0-.7,2.25,3.35,3.35,0,0,0,.95,2.41,3.12,3.12,0,0,0,2.35,1,3.79,3.79,0,0,0,3.15-1.66,15.43,15.43,0,0,0,2.1-3.89,25.56,25.56,0,0,0,1.25-4.61C416.38,44.83,416.58,43.58,416.71,42.65Z"/><path class="cls-1" d="M453.91,85.75h-5.7l.1-20.61V55.55h3.8q7,0,7-6.2,0-4.41-6.3-18.1l-3.6-2.1V27h18.5v1.7l-1.5,2.3q3.69,11.79,4.8,11.8h.3l4.4-11.8-1-2.3v-.6l-.1-1.1h16.6v1.6a18.15,18.15,0,0,1-2.3,2.7q-5.31,13-5,18.2.09,5.7,6.4,5.8h5.3l-.1,2.3v28.2c.06-.07-.5-.11-1.7-.11h-1.9l-.9.11h-37.1Z"/><path class="cls-1" d="M522.81,27.25q9,0,13.7,8.2a5.19,5.19,0,0,1,.5,2.1q0,7.1-12.4,8.8-3.4,1.89-3.4,3.6v.5q0,2.4,4.9,4.9a15.82,15.82,0,0,0,5.2.79h11.1c.33.07.5.24.5.5V84.75c0,.33-.27.5-.8.5q-4.5,0-18.8.3v-.3l-.5.3q-7.9,0-15.7-6.7a25.19,25.19,0,0,1-7-17.6v-1q0-7,8-24Q513.81,27.25,522.81,27.25Zm-5.7,9.8q0,3.5,2.1,10.3.49-3.51,7.5-9.3a4.24,4.24,0,0,0,1-3.8q-.9-4.91-5.4-4.9Q517.11,29.35,517.11,37.05Z"/><path class="cls-1" d="M592.81,15.85a5.24,5.24,0,0,0-1.25-3.35A3.88,3.88,0,0,0,588.41,11V9.55h19.7V11a3.74,3.74,0,0,0-3.05,1.6,5.24,5.24,0,0,0-1.25,3.3v23.5a24.1,24.1,0,0,0,.75,6.15,14.51,14.51,0,0,0,2.35,5,11.24,11.24,0,0,0,4.1,3.39,13.43,13.43,0,0,0,6.1,1.25v30.5h-37.7V55.14a13,13,0,0,0,6-1.29,12.17,12.17,0,0,0,4.2-3.46,14.64,14.64,0,0,0,2.45-5,22.44,22.44,0,0,0,.8-6Z"/><path class="cls-1" d="M685.2,31a44.33,44.33,0,0,1,9,5.2,40.48,40.48,0,0,1,7.65,7.3,36.07,36.07,0,0,1,5.3,8.94,26.56,26.56,0,0,1,2,10.25,22.92,22.92,0,0,1-1.6,8.41,25.41,25.41,0,0,1-4.35,7.34,21.41,21.41,0,0,1-6.6,5.25,17.74,17.74,0,0,1-8.35,2H652.8V55.14a11.56,11.56,0,0,0,5.85-1.34,10.74,10.74,0,0,0,3.75-3.55,14.16,14.16,0,0,0,2-5,30.54,30.54,0,0,0,.55-5.85V15.85a5.36,5.36,0,0,0-1.2-3.35A3.72,3.72,0,0,0,660.6,11V9.55h20.7a15.05,15.05,0,0,1,4.7.75,14.39,14.39,0,0,1,4.2,2.15,10.62,10.62,0,0,1,3,3.45,9.27,9.27,0,0,1,1.15,4.65,9.45,9.45,0,0,1-2.7,6.8A12.45,12.45,0,0,1,685.2,31Zm-7.5-18.4a1.49,1.49,0,0,0-1.45.65,3,3,0,0,0-.35,1.45v12.6a2.33,2.33,0,0,0,.35,1.25,1.28,1.28,0,0,0,1.15.55,5.56,5.56,0,0,0,3.05-.8,6.68,6.68,0,0,0,2-2.05,8.7,8.7,0,0,0,1.15-2.7,11.82,11.82,0,0,0,.35-2.85,13.12,13.12,0,0,0-.3-2.65,8.53,8.53,0,0,0-1.05-2.7,5.84,5.84,0,0,0-1.95-2A5.56,5.56,0,0,0,677.7,12.55Zm-1.8,28.3c0,1.2.05,2.63.15,4.3A19.22,19.22,0,0,0,677,50a10.77,10.77,0,0,0,2.2,3.9,5.34,5.34,0,0,0,4.15,1.6,5.56,5.56,0,0,0,2.7-.6,4.63,4.63,0,0,0,1.75-1.65,6.63,6.63,0,0,0,.9-2.31,12.65,12.65,0,0,0,.25-2.54,17.38,17.38,0,0,0-.8-4.85,21.18,21.18,0,0,0-2.25-5.15,15.43,15.43,0,0,0-3.55-4.1,7.38,7.38,0,0,0-4.8-1.7q-1.1,0-1.35.75a5,5,0,0,0-.25,1.55Z"/><path class="cls-1" d="M735.3,27.25q9,0,13.7,8.2a4.88,4.88,0,0,1,.5,2.1q0,7.1-12.4,8.8c-2.26,1.26-3.4,2.46-3.4,3.6v.5c0,1.6,1.64,3.23,4.9,4.9a15.91,15.91,0,0,0,5.2.79h11.1c.34.07.5.24.5.5V84.75c0,.33-.26.5-.8.5q-4.5,0-18.8.3v-.3l-.5.3q-7.89,0-15.7-6.7a25.24,25.24,0,0,1-7-17.6v-1q0-7,8-24Q726.3,27.25,735.3,27.25Zm-5.7,9.8q0,3.5,2.1,10.3.51-3.51,7.5-9.3a4.18,4.18,0,0,0,1-3.8q-.9-4.91-5.4-4.9Q729.61,29.35,729.6,37.05Z"/><path class="cls-1" d="M782.3,27.25q9,0,13.7,8.2a4.88,4.88,0,0,1,.5,2.1q0,7.1-12.4,8.8-3.4,1.89-3.4,3.6v.5q0,2.4,4.9,4.9a15.87,15.87,0,0,0,5.2.79h11.1c.34.07.5.24.5.5V84.75c0,.33-.27.5-.8.5q-4.5,0-18.8.3v-.3l-.5.3q-7.89,0-15.7-6.7a25.24,25.24,0,0,1-7-17.6v-1q0-7,8-24Q773.3,27.25,782.3,27.25Zm-5.7,9.8q0,3.5,2.1,10.3.51-3.51,7.5-9.3a4.21,4.21,0,0,0,1-3.8q-.9-4.91-5.4-4.9Q776.6,29.35,776.6,37.05Z"/><path class="cls-1" d="M832.1,26.55a11.24,11.24,0,0,1,8.25,3.1,15.61,15.61,0,0,1,4.25,7.8l1.9,8.9a15.05,15.05,0,0,0,2.85,6.45q1.95,2.34,6.65,2.34v30.5H829.7V55.35a5.83,5.83,0,0,0,2.6-1.6,4,4,0,0,0,1-2.8V34.05A16.3,16.3,0,0,0,832,32.2a4.2,4.2,0,0,0-3.15-1.85,5.24,5.24,0,0,0-3.15,1.85c-.9,1-1.32,1.65-1.25,1.85V51a4,4,0,0,0,1,2.8,5.83,5.83,0,0,0,2.6,1.6V85.64H805.6V55.14h1.7a6.13,6.13,0,0,0,6.1-6.09V32.65a4.21,4.21,0,0,0-1.3-3.1,4.12,4.12,0,0,0-3-1.3V27h15.3v2.3A12.32,12.32,0,0,1,832.1,26.55Z"/><path class="cls-1" d="M891.7,85.64V55.14a16.06,16.06,0,0,0,6.6-1.29,14.91,14.91,0,0,0,5-3.55,16.29,16.29,0,0,0,3.2-5.35,18.77,18.77,0,0,0,1.15-6.6q0-5.61,0-11t.05-11c0-.47,0-1-.05-1.6A5.1,5.1,0,0,0,907.3,13a3.71,3.71,0,0,0-.85-1.3,2.08,2.08,0,0,0-1.55-.55A2.68,2.68,0,0,0,903,12a7.62,7.62,0,0,0-1.45,2.05,13.34,13.34,0,0,0-1,2.45c-.23.83-.42,1.55-.55,2.15a32.18,32.18,0,0,1-1.35,4.5,6.47,6.47,0,0,1-3.25,3.2V9.55h36.3v16.8a7.39,7.39,0,0,1-3.3-3.25,8.8,8.8,0,0,1-.75-2.05c-.17-.74-.35-1.54-.55-2.4-.13-.6-.32-1.32-.55-2.15a13.34,13.34,0,0,0-.95-2.45A7.62,7.62,0,0,0,924.15,12a2.68,2.68,0,0,0-1.95-.85,2.17,2.17,0,0,0-2.25,1.4,7.5,7.5,0,0,0-.55,2.8v23a19.7,19.7,0,0,0,1.1,6.6,14.91,14.91,0,0,0,8.25,8.9,16.44,16.44,0,0,0,6.65,1.29v30.5Z"/><path class="cls-1" d="M964.8,26.55a11.24,11.24,0,0,1,8.25,3.1,15.68,15.68,0,0,1,4.25,7.8l2,8.9a17.82,17.82,0,0,0,1.1,3.75,9.2,9.2,0,0,0,1.75,2.75,7.12,7.12,0,0,0,2.65,1.7,11.19,11.19,0,0,0,3.9.59v30.5H962.4V55.35a5.89,5.89,0,0,0,2.6-1.6,4,4,0,0,0,1-2.8V34.05a4.44,4.44,0,0,0-4.4-4.4,4.32,4.32,0,0,0-3.2,1.3,4.21,4.21,0,0,0-1.3,3.1V51a4,4,0,0,0,1,2.8,5.77,5.77,0,0,0,2.6,1.6V85.64H937.9V55.14H940a5.82,5.82,0,0,0,4.35-1.79,6,6,0,0,0,1.75-4.3V12.35a4.32,4.32,0,0,0-1.25-3.1A4.07,4.07,0,0,0,941.8,8V6.65h15.3v22.6A12.32,12.32,0,0,1,964.8,26.55Z"/><path class="cls-1" d="M997.9,27h15.4v22.1a6,6,0,0,0,1.75,4.3,5.79,5.79,0,0,0,4.35,1.79h4v30.5H992.1V55.14h4a6,6,0,0,0,4.4-1.79,5.9,5.9,0,0,0,1.8-4.3V32.65a4.44,4.44,0,0,0-4.4-4.4Zm9.7-13.9a5.79,5.79,0,0,1,4.25,1.75,5.91,5.91,0,0,1,1.75,4.35,6,6,0,0,1-6,6,6,6,0,0,1-4.3-1.75,5.72,5.72,0,0,1-1.8-4.25,5.8,5.8,0,0,1,1.8-4.35A5.93,5.93,0,0,1,1007.6,13.05Z"/><path class="cls-1" d="M1047.6,27.15q8.49.39,11,8.5,1.5,7.2-5.2,7.3-6.11-.9-4.5-6.5l.9-2.8c1.13-2.4.6-3.94-1.6-4.6q-5.61-.71-5.2,4.7.69,8.79,12.7,15.1,8.29,5,10.5,10,5.7,14.29-8.9,24.79a14.9,14.9,0,0,1-7.1,2h-26.6V55.14h10.7q4-.28,2.3-3Q1032,47.36,1032,42q.8-7,4.1-9.9A15.14,15.14,0,0,1,1047.6,27.15Z"/><path class="cls-1" d="M1104.2,9.45h10.4l3.8.1h2.2v1a8.45,8.45,0,0,0-1.5,2.3q5.7,8.79,7.1,10.9.3-1,6.3-10.9a11,11,0,0,0-2.5-2.3v-1h16.8v1q-15,19.1-14.3,25.7v7.2q0,10,18,12V85.64H1102V55.45q17.1-2.21,17.1-12l-.1-7.2q.09-6.51-12.5-24.1a6,6,0,0,0-2.3-.7Z"/><path class="cls-1" d="M1178.7,27.25q9,0,13.69,8.2a4.88,4.88,0,0,1,.5,2.1q0,7.1-12.39,8.8-3.4,1.89-3.41,3.6v.5q0,2.4,4.91,4.9a15.82,15.82,0,0,0,5.2.79h11.09c.34.07.5.24.5.5V84.75c0,.33-.26.5-.79.5q-4.5,0-18.8.3v-.3l-.5.3q-7.9,0-15.7-6.7a25.19,25.19,0,0,1-7-17.6v-1q0-7,8-24Q1169.69,27.25,1178.7,27.25Zm-5.7,9.8q0,3.5,2.09,10.3.51-3.51,7.5-9.3a4.18,4.18,0,0,0,1-3.8q-.88-4.91-5.39-4.9Q1173,29.35,1173,37.05Z"/><path class="cls-1" d="M1232.49,35.15a6.5,6.5,0,0,0-1.55-4.65,4.9,4.9,0,0,0-4.35-1.35,5.59,5.59,0,0,0-2.45-.2c-.36.13-.76.3-1.2.5l-1.4.65a1.18,1.18,0,0,0-.75,1.15,1.47,1.47,0,0,0,.75,1.35c.5.3,1.07.65,1.7,1a6,6,0,0,1,1.7,1.65,5.42,5.42,0,0,1,.75,3.15A5.08,5.08,0,0,1,1224,42.3a5.57,5.57,0,0,1-4,1.55,4.91,4.91,0,0,1-4.2-1.9,7.41,7.41,0,0,1-1.4-4.5,9.05,9.05,0,0,1,1.5-5.15,13.18,13.18,0,0,1,3.8-3.75,19.71,19.71,0,0,1,10.4-3.1,19.36,19.36,0,0,1,6.2,1,15.65,15.65,0,0,1,5.5,3.2,18.26,18.26,0,0,1,3.5,4,27,27,0,0,1,2.4,4.55,35,35,0,0,1,1.65,5q.66,2.55,1.45,5a25.45,25.45,0,0,0,.95,2.71,9.2,9.2,0,0,0,1.35,2.25,5.79,5.79,0,0,0,2,1.5,7,7,0,0,0,2.9.54h1.9v30l-2.25.41a14,14,0,0,1-2.35.2,17.56,17.56,0,0,1-10.5-3.4,21,21,0,0,1-7-8.6,20.6,20.6,0,0,1-3,5,21.77,21.77,0,0,1-4.15,4,18.87,18.87,0,0,1-5,2.65,17.56,17.56,0,0,1-5.75,1,16.62,16.62,0,0,1-7.3-1.6,18.65,18.65,0,0,1-5.7-4.25,19,19,0,0,1-3.7-6.15,21.3,21.3,0,0,1-1.3-7.4,20.08,20.08,0,0,1,1.7-8.85,16.79,16.79,0,0,1,4.55-5.75,25.94,25.94,0,0,1,6.7-3.85c2.57-1,5.29-2.05,8.15-3.05a24.27,24.27,0,0,0,3.3-1.55,15,15,0,0,0,3-2.25,11.09,11.09,0,0,0,2.2-3A7.82,7.82,0,0,0,1232.49,35.15Zm-.6,7.5a25.58,25.58,0,0,1-3.65,3.7,38.18,38.18,0,0,1-4.25,3,7.67,7.67,0,0,0-1.8,1.54,3.48,3.48,0,0,0-.7,2.25,3.39,3.39,0,0,0,1,2.41,3.15,3.15,0,0,0,2.35,1,3.78,3.78,0,0,0,3.15-1.66A14.83,14.83,0,0,0,1230,51a24,24,0,0,0,1.25-4.61C1231.56,44.83,1231.76,43.58,1231.89,42.65Z"/><path class="cls-1" d="M1291.19,27q7.71,0,8.1,8-.49,7.39-7.6,7.5c-3.66-.54-5.5-2.47-5.5-5.8,0-2.6,1.73-4.44,5.2-5.5l.3-1a1.57,1.57,0,0,0-1.6-1.2c-2.4,0-4,1.76-4.7,5.3V47.64q0,6.11,7.1,7.81a17.37,17.37,0,0,0,2.1.19h3.1v30h-34.3V56.45a23.16,23.16,0,0,0,6-1.31,8.89,8.89,0,0,0,4.5-8V32.65c-.2-1.74-1.53-3.4-4-5v-.5h15c.14,1.33.4,2,.8,2A7.68,7.68,0,0,1,1291.19,27Z"/><path class="cls-1" d="M1323.39,9.25a20,20,0,0,1,8.5,5,25.85,25.85,0,0,1,6.3,12.9,24.5,24.5,0,0,1,.1,3.7v2.2c-.13,1.86-.2,2.9-.2,3.1a22.26,22.26,0,0,1-1.9,8.4c-1.67,3.59-3.1,6-4.3,7.09a19.2,19.2,0,0,1-7,6.31,13,13,0,0,1-5.7,1.6h-1.9c-3.4-.74-5.47-1.5-6.2-2.3a6.59,6.59,0,0,1-2.3-4.5q.49-4.8,3.9-5.11a3.05,3.05,0,0,1,1.5-.19h.2c2.2.8,3.3,2.06,3.3,3.8,0,1.26.23,1.89.7,1.89q2.59.11,5-3.39a15.86,15.86,0,0,0,1.4-2.9l.6-2.2.3-1a51.51,51.51,0,0,0,1.8-6.3,7.88,7.88,0,0,0-1.1-6.3q-4.31-5-8.1-5-8.6-.71-8.7,6.4a14.35,14.35,0,0,0,.6,2.6,6.77,6.77,0,0,0,2.1,2.9,10.42,10.42,0,0,1-5-1.5q-2.1-.71-4-4.1c-1.2-1.54-1.87-4.2-2-8q.8-7.8,6.3-11.8Q1314.09,7,1323.39,9.25Zm-16.3,51.39-.1,24.91v4l1,.09.8-.09.2.09.2-.09h22l.4.09h.8v-29h-25.3Z"/></svg>